/* XPM */
static char *b2a20e86b33c4bc2c1942a58ab9fab4e[] = {
/* columns rows colors chars-per-pixel */
"100 100 5 1 ",
"  c None",
". c #880E4F",
"X c #E91E63",
"o c #F06292",
"O c #F8BBD0",
/* pixels */
"                                                                                                    ",
"                                                                                                    ",
"                                                                                                    ",
"                                                                                                    ",
"                                                                                                    ",
"                                                                                                    ",
"                                                                                                    ",
"                                                                                                    ",
"                                                                                                    ",
"                                                                                                    ",
"                                                                                                    ",
"                                                                                                    ",
"                                                                                                    ",
"                                                                                                    ",
"                                                                                                    ",
"                                                                                                    ",
"                                                                                                    ",
"                                                                                                    ",
"                                                                                                    ",
"                                                                                                    ",
"                                                                                                    ",
"                                                                                                    ",
"                                                                                                    ",
"                                                                                                    ",
"                                                                                                    ",
"                                                                                                    ",
"                                                                                                    ",
"                                                                                                    ",
"                                                                                                    ",
"                                                                                                    ",
"                                                                                                    ",
"                                                                                                    ",
"                                                                                                    ",
"                                                                                                    ",
"                                                                                                    ",
"                                                                                                    ",
"                   XXXXXXXXXXXX   XXXXX     XXX    XX     XX  XXXXXXX  XXXXXXXXXXXX                 ",
"                    XXXXXXXXXXX  XXXXXXX   XXXXX   XXX   XXX  XXXXXXX  XXXXXXXXXXX                  ",
"                     oooooooooo  oo   oo  ooo ooo  oooo oooo  oo       oooooooooo                   ",
"                      ooooooooo  oo       oo   oo  ooooooooo  oo       ooooooooo                    ",
"                       OOOOOOOO  OO       OO   OO  OO OOO OO  OOOOO    OOOOOOOO                     ",
"                        OOOOOOO  OO  OOO  OOOOOOO  OO  O  OO  OOOOO    OOOOOOO                      ",
"                         ......  ..  ...  .......  ..     ..  ..       ......                       ",
"                          .....  ..   ..  ..   ..  ..     ..  ..       .....                        ",
"                                 .......  ..   ..  ..     ..  .......                               ",
"                                  .....   ..   ..  ..     ..  .......                               ",
"                                                                                                    ",
"                                                                                                    ",
"                                    XXX    XX   XX  XXXXXXX  XXXXX                                  ",
"                                   XXXXX   XX   XX  XXXXXXX  XXXXXX                                 ",
"                                  oo   oo  oo   oo  oo       oo  ooo                                ",
"                                  oo   oo  oo   oo  oo       oo   oo                                ",
"                                  OO   OO  OOO OOO  OOOOO    OO  OOO                                ",
"                                  OO   OO   OO OO   OOOOO    OOOOOO                                 ",
"                                  ..   ..   .. ..   ..       .....                                  ",
"                                  ..   ..   .....   ..       .. ...                                 ",
"                                   .....     ...    .......  ..  ...                                ",
"                                    ...      ...    .......  ..   ..                                ",
"                                                                                                    ",
"                                                                                                    ",
"                                                                                                    ",
"                                                                                                    ",
"                                                                                                    ",
"                                                                                                    ",
"                                                                                                    ",
"                                                                                                    ",
"                                                                                                    ",
"                                                                                                    ",
"                                                                                                    ",
"                                                                                                    ",
"                                                                                                    ",
"                                                                                                    ",
"                                                                                                    ",
"                                                                                                    ",
"                                                                                                    ",
"                                                                                                    ",
"                                                                                                    ",
"                                                                                                    ",
"                                                                                                    ",
"                                                                                                    ",
"                                                                                                    ",
"                                                                                                    ",
"                                                                                                    ",
"                                                                                                    ",
"                                                                                                    ",
"                                                                                                    ",
"                                                                                                    ",
"                                                                                                    ",
"                                                                                                    ",
"                                                                                                    ",
"                                                                                                    ",
"                                                                                                    ",
"                                                                                                    ",
"                                                                                                    ",
"                                                                                                    ",
"                                                                                                    ",
"                                                                                                    ",
"                                                                                                    ",
"                                                                                                    ",
"                                                                                                    "
};
